<mxfile host="app.diagrams.net" modified="2023-05-21T05:58:52.409Z" agent="Mozilla/5.0 (Macintosh; Intel Mac OS X 10_15_7) AppleWebKit/537.36 (KHTML, like Gecko) Chrome/112.0.0.0 Safari/537.36" version="21.2.9" etag="LmnbMi6wsZkbd4BTRFu7" type="github">
  <diagram name="Page-1" id="cJ8b_4lLcZbmhko8O0Ll">
    <mxGraphModel>
      <root>
        <mxCell id="0" />
        <mxCell id="1" parent="0" />
      </root>
    </mxGraphModel>
  </diagram>
</mxfile>
